<svg xmlns="http://www.w3.org/2000/svg" xmlns:xlink="http://www.w3.org/1999/xlink" width="208" height="208" viewBox="0 0 208 208">
  <defs>
    <clipPath id="clip-path">
      <rect width="208" height="208" fill="none"/>
    </clipPath>
  </defs>
  <g id="Repeat_Grid_1" data-name="Repeat Grid 1" clip-path="url(#clip-path)">
    <g transform="translate(-144 -1124)">
      <circle id="Ellipse_6" data-name="Ellipse 6" cx="10" cy="10" r="10" transform="translate(144 1124)" fill="#fff"/>
    </g>
    <g transform="translate(-99 -1124)">
      <circle id="Ellipse_6-2" data-name="Ellipse 6" cx="10" cy="10" r="10" transform="translate(144 1124)" fill="#fff"/>
    </g>
    <g transform="translate(-54 -1124)">
      <circle id="Ellipse_6-3" data-name="Ellipse 6" cx="10" cy="10" r="10" transform="translate(144 1124)" fill="#fff"/>
    </g>
    <g transform="translate(-9 -1124)">
      <circle id="Ellipse_6-4" data-name="Ellipse 6" cx="10" cy="10" r="10" transform="translate(144 1124)" fill="#fff"/>
    </g>
    <g transform="translate(36 -1124)">
      <circle id="Ellipse_6-5" data-name="Ellipse 6" cx="10" cy="10" r="10" transform="translate(144 1124)" fill="#fff"/>
    </g>
    <g transform="translate(-144 -1079)">
      <circle id="Ellipse_6-6" data-name="Ellipse 6" cx="10" cy="10" r="10" transform="translate(144 1124)" fill="#fff"/>
    </g>
    <g transform="translate(-99 -1079)">
      <circle id="Ellipse_6-7" data-name="Ellipse 6" cx="10" cy="10" r="10" transform="translate(144 1124)" fill="#fff"/>
    </g>
    <g transform="translate(-54 -1079)">
      <circle id="Ellipse_6-8" data-name="Ellipse 6" cx="10" cy="10" r="10" transform="translate(144 1124)" fill="#fff"/>
    </g>
    <g transform="translate(-9 -1079)">
      <circle id="Ellipse_6-9" data-name="Ellipse 6" cx="10" cy="10" r="10" transform="translate(144 1124)" fill="#fff"/>
    </g>
    <g transform="translate(36 -1079)">
      <circle id="Ellipse_6-10" data-name="Ellipse 6" cx="10" cy="10" r="10" transform="translate(144 1124)" fill="#fff"/>
    </g>
    <g transform="translate(-144 -1034)">
      <circle id="Ellipse_6-11" data-name="Ellipse 6" cx="10" cy="10" r="10" transform="translate(144 1124)" fill="#fff"/>
    </g>
    <g transform="translate(-99 -1034)">
      <circle id="Ellipse_6-12" data-name="Ellipse 6" cx="10" cy="10" r="10" transform="translate(144 1124)" fill="#fff"/>
    </g>
    <g transform="translate(-54 -1034)">
      <circle id="Ellipse_6-13" data-name="Ellipse 6" cx="10" cy="10" r="10" transform="translate(144 1124)" fill="#fff"/>
    </g>
    <g transform="translate(-9 -1034)">
      <circle id="Ellipse_6-14" data-name="Ellipse 6" cx="10" cy="10" r="10" transform="translate(144 1124)" fill="#fff"/>
    </g>
    <g transform="translate(36 -1034)">
      <circle id="Ellipse_6-15" data-name="Ellipse 6" cx="10" cy="10" r="10" transform="translate(144 1124)" fill="#fff"/>
    </g>
    <g transform="translate(-144 -989)">
      <circle id="Ellipse_6-16" data-name="Ellipse 6" cx="10" cy="10" r="10" transform="translate(144 1124)" fill="#fff"/>
    </g>
    <g transform="translate(-99 -989)">
      <circle id="Ellipse_6-17" data-name="Ellipse 6" cx="10" cy="10" r="10" transform="translate(144 1124)" fill="#fff"/>
    </g>
    <g transform="translate(-54 -989)">
      <circle id="Ellipse_6-18" data-name="Ellipse 6" cx="10" cy="10" r="10" transform="translate(144 1124)" fill="#fff"/>
    </g>
    <g transform="translate(-9 -989)">
      <circle id="Ellipse_6-19" data-name="Ellipse 6" cx="10" cy="10" r="10" transform="translate(144 1124)" fill="#fff"/>
    </g>
    <g transform="translate(36 -989)">
      <circle id="Ellipse_6-20" data-name="Ellipse 6" cx="10" cy="10" r="10" transform="translate(144 1124)" fill="#fff"/>
    </g>
    <g transform="translate(-144 -944)">
      <circle id="Ellipse_6-21" data-name="Ellipse 6" cx="10" cy="10" r="10" transform="translate(144 1124)" fill="#fff"/>
    </g>
    <g transform="translate(-99 -944)">
      <circle id="Ellipse_6-22" data-name="Ellipse 6" cx="10" cy="10" r="10" transform="translate(144 1124)" fill="#fff"/>
    </g>
    <g transform="translate(-54 -944)">
      <circle id="Ellipse_6-23" data-name="Ellipse 6" cx="10" cy="10" r="10" transform="translate(144 1124)" fill="#fff"/>
    </g>
    <g transform="translate(-9 -944)">
      <circle id="Ellipse_6-24" data-name="Ellipse 6" cx="10" cy="10" r="10" transform="translate(144 1124)" fill="#fff"/>
    </g>
    <g transform="translate(36 -944)">
      <circle id="Ellipse_6-25" data-name="Ellipse 6" cx="10" cy="10" r="10" transform="translate(144 1124)" fill="#fff"/>
    </g>
  </g>
</svg>
